<svg xmlns="http://www.w3.org/2000/svg" viewBox="0 0 255.856 255.856">
  <g fill="#FFFFFF">
    <path d="M127.928 38.8c-30.75 0-55.768 25.017-55.768 55.767s25.018 55.767 55.768 55.767 55.768-25.017 55.768-55.767S158.678 38.8 127.928 38.8zm0 96.533c-22.48 0-40.768-18.288-40.768-40.767S105.45 53.8 127.928 53.8s40.768 18.288 40.768 40.767-18.288 40.766-40.768 40.766z"/>
    <path d="M127.928 0C75.784 0 33.362 42.422 33.362 94.566c0 30.072 25.22 74.875 40.253 98.904 9.89 15.81 20.52 30.855 29.928 42.365 15.1 18.474 20.506 20.02 24.386 20.02 3.937 0 9.04-1.547 24.094-20.03 9.43-11.58 20.063-26.617 29.944-42.343 15.136-24.088 40.527-68.97 40.527-98.917C222.495 42.422 180.073 0 127.928 0zm43.64 181.803c-19.395 31.483-37.202 52.757-43.73 58.188-6.56-5.263-24.078-26.03-43.745-58.088-22.707-37.015-35.73-68.848-35.73-87.336C48.363 50.693 84.055 15 127.928 15s79.566 35.693 79.566 79.566c0 18.382-13.094 50.178-35.925 87.237z"/>
  </g>
</svg>
