<svg xmlns="http://www.w3.org/2000/svg" width="32.666" height="32.666" viewBox="0 0 32.666 32.666"><path fill="#FFFFFF" d="M28.19 16.504h-1.667c0-5.437-4.422-9.858-9.856-9.858V4.982c6.354-.003 11.522 5.167 11.522 11.522zM16.665 7.856V9.52c3.852 0 6.982 3.133 6.98 6.983h1.666c0-4.768-3.876-8.647-8.646-8.647zM16.333 0C7.326 0 0 7.326 0 16.334c0 9.006 7.326 16.332 16.333 16.332.557 0 1.007-.45 1.007-1.006 0-.56-.45-1.01-1.007-1.01-7.896 0-14.318-6.424-14.318-14.316 0-7.896 6.422-14.32 14.318-14.32S30.65 8.44 30.65 16.335c0 3.3-1.756 6.568-4.27 7.954-.912.502-1.902.75-2.958.76.634-.376 1.183-.886 1.59-1.528.08-.12.187-.228.24-.36.327-.788.356-1.683.554-2.517.243-1.064-4.658-3.143-5.084-1.814-.154.49-.39 2.047-.7 2.457-.274.366-.952.192-1.376-.168-1.117-.953-2.364-2.352-3.458-3.458h.002c-.028-.03-.062-.062-.092-.093l-.093-.093v.002c-1.106-1.097-2.506-2.34-3.457-3.46-.36-.424-.534-1.102-.168-1.377.41-.31 1.966-.543 2.458-.7 1.326-.423-.75-5.327-1.816-5.083-.832.195-1.727.227-2.516.553-.134.057-.238.16-.36.24-2.798 1.774-3.16 6.082-.427 9.292 1.04 1.228 2.126 2.416 3.244 3.576l-.006.005c.03.03.063.06.095.09.03.03.06.062.088.095l.007-.006c1.16 1.118 2.535 2.765 4.77 4.255 4.702 3.14 8.31 2.263 10.437 1.097 3.67-2.02 5.312-6.338 5.312-9.72C32.666 7.328 25.34 0 16.333 0z"/></svg>
